<mxfile host="Electron" modified="2024-03-22T15:55:01.983Z" agent="Mozilla/5.0 (Macintosh; Intel Mac OS X 10_15_7) AppleWebKit/537.36 (KHTML, like Gecko) draw.io/23.0.2 Chrome/120.0.6099.109 Electron/28.1.0 Safari/537.36" etag="pUPJwStmJORlY1BdrFwt" version="23.0.2" type="device">
  <diagram name="PÃ¡gina-1" id="U_Om4M-cWcYkEKm5Baaw">
    <mxGraphModel dx="2726" dy="1926" grid="1" gridSize="10" guides="1" tooltips="1" connect="1" arrows="1" fold="1" page="1" pageScale="1" pageWidth="2339" pageHeight="3300" math="0" shadow="0">
      <root>
        <mxCell id="0" />
        <mxCell id="1" parent="0" />
        <mxCell id="xqqz79Ulj2Jtzs50PCgT-1" value="countries" style="swimlane;whiteSpace=wrap;html=1;" parent="1" vertex="1">
          <mxGeometry x="120" y="240" width="200" height="200" as="geometry" />
        </mxCell>
        <mxCell id="xqqz79Ulj2Jtzs50PCgT-13" value="&lt;u&gt;ID&lt;/u&gt;" style="text;html=1;strokeColor=none;fillColor=none;align=center;verticalAlign=middle;whiteSpace=wrap;rounded=0;" parent="xqqz79Ulj2Jtzs50PCgT-1" vertex="1">
          <mxGeometry y="19" width="60" height="30" as="geometry" />
        </mxCell>
        <mxCell id="xqqz79Ulj2Jtzs50PCgT-14" value="PK" style="text;html=1;strokeColor=none;fillColor=none;align=center;verticalAlign=middle;whiteSpace=wrap;rounded=0;" parent="xqqz79Ulj2Jtzs50PCgT-1" vertex="1">
          <mxGeometry x="120" y="21" width="60" height="30" as="geometry" />
        </mxCell>
        <mxCell id="xqqz79Ulj2Jtzs50PCgT-16" value="name" style="text;html=1;strokeColor=none;fillColor=none;align=center;verticalAlign=middle;whiteSpace=wrap;rounded=0;" parent="xqqz79Ulj2Jtzs50PCgT-1" vertex="1">
          <mxGeometry x="9" y="60" width="60" height="30" as="geometry" />
        </mxCell>
        <mxCell id="xqqz79Ulj2Jtzs50PCgT-2" value="cities" style="swimlane;whiteSpace=wrap;html=1;" parent="1" vertex="1">
          <mxGeometry x="601" y="400" width="200" height="200" as="geometry" />
        </mxCell>
        <mxCell id="xqqz79Ulj2Jtzs50PCgT-22" value="&lt;u&gt;ID&lt;/u&gt;" style="text;html=1;strokeColor=none;fillColor=none;align=center;verticalAlign=middle;whiteSpace=wrap;rounded=0;" parent="xqqz79Ulj2Jtzs50PCgT-2" vertex="1">
          <mxGeometry x="9" y="19" width="47" height="30" as="geometry" />
        </mxCell>
        <mxCell id="xqqz79Ulj2Jtzs50PCgT-23" value="PK" style="text;html=1;strokeColor=none;fillColor=none;align=center;verticalAlign=middle;whiteSpace=wrap;rounded=0;" parent="xqqz79Ulj2Jtzs50PCgT-2" vertex="1">
          <mxGeometry x="139" y="22" width="60" height="30" as="geometry" />
        </mxCell>
        <mxCell id="xqqz79Ulj2Jtzs50PCgT-24" value="name" style="text;html=1;strokeColor=none;fillColor=none;align=center;verticalAlign=middle;whiteSpace=wrap;rounded=0;" parent="xqqz79Ulj2Jtzs50PCgT-2" vertex="1">
          <mxGeometry x="2" y="60" width="70" height="30" as="geometry" />
        </mxCell>
        <mxCell id="xqqz79Ulj2Jtzs50PCgT-26" value="country_id" style="text;html=1;strokeColor=none;fillColor=none;align=center;verticalAlign=middle;whiteSpace=wrap;rounded=0;" parent="xqqz79Ulj2Jtzs50PCgT-2" vertex="1">
          <mxGeometry x="9" y="100" width="64" height="29" as="geometry" />
        </mxCell>
        <mxCell id="xqqz79Ulj2Jtzs50PCgT-39" value="sports" style="swimlane;whiteSpace=wrap;html=1;" parent="1" vertex="1">
          <mxGeometry x="601" y="720" width="199" height="200" as="geometry" />
        </mxCell>
        <mxCell id="xqqz79Ulj2Jtzs50PCgT-45" value="&lt;u&gt;ID&lt;/u&gt;" style="text;html=1;strokeColor=none;fillColor=none;align=center;verticalAlign=middle;whiteSpace=wrap;rounded=0;" parent="xqqz79Ulj2Jtzs50PCgT-39" vertex="1">
          <mxGeometry y="19" width="60" height="30" as="geometry" />
        </mxCell>
        <mxCell id="xqqz79Ulj2Jtzs50PCgT-46" value="PK" style="text;html=1;strokeColor=none;fillColor=none;align=center;verticalAlign=middle;whiteSpace=wrap;rounded=0;" parent="xqqz79Ulj2Jtzs50PCgT-39" vertex="1">
          <mxGeometry x="138" y="21" width="60" height="30" as="geometry" />
        </mxCell>
        <mxCell id="xqqz79Ulj2Jtzs50PCgT-47" value="name" style="text;html=1;strokeColor=none;fillColor=none;align=center;verticalAlign=middle;whiteSpace=wrap;rounded=0;" parent="xqqz79Ulj2Jtzs50PCgT-39" vertex="1">
          <mxGeometry x="9" y="60" width="60" height="30" as="geometry" />
        </mxCell>
        <mxCell id="xqqz79Ulj2Jtzs50PCgT-48" value="users" style="swimlane;whiteSpace=wrap;html=1;" parent="1" vertex="1">
          <mxGeometry x="601" y="1080" width="200" height="250" as="geometry" />
        </mxCell>
        <mxCell id="xqqz79Ulj2Jtzs50PCgT-50" value="&lt;u&gt;ID&lt;/u&gt;" style="text;html=1;strokeColor=none;fillColor=none;align=center;verticalAlign=middle;whiteSpace=wrap;rounded=0;" parent="xqqz79Ulj2Jtzs50PCgT-48" vertex="1">
          <mxGeometry x="-2" y="20" width="60" height="30" as="geometry" />
        </mxCell>
        <mxCell id="xqqz79Ulj2Jtzs50PCgT-51" value="PK" style="text;html=1;strokeColor=none;fillColor=none;align=center;verticalAlign=middle;whiteSpace=wrap;rounded=0;" parent="xqqz79Ulj2Jtzs50PCgT-48" vertex="1">
          <mxGeometry x="140" y="21" width="60" height="30" as="geometry" />
        </mxCell>
        <mxCell id="xqqz79Ulj2Jtzs50PCgT-53" value="&lt;u&gt;city_id&lt;/u&gt;" style="text;html=1;strokeColor=none;fillColor=none;align=center;verticalAlign=middle;whiteSpace=wrap;rounded=0;" parent="xqqz79Ulj2Jtzs50PCgT-48" vertex="1">
          <mxGeometry x="10" y="220" width="54" height="30" as="geometry" />
        </mxCell>
        <mxCell id="WI1DVCWgMpx3r-e4tX1s-11" value="name" style="text;html=1;strokeColor=none;fillColor=none;align=center;verticalAlign=middle;whiteSpace=wrap;rounded=0;" parent="xqqz79Ulj2Jtzs50PCgT-48" vertex="1">
          <mxGeometry x="2" y="60" width="70" height="30" as="geometry" />
        </mxCell>
        <mxCell id="WI1DVCWgMpx3r-e4tX1s-12" value="surname" style="text;html=1;strokeColor=none;fillColor=none;align=center;verticalAlign=middle;whiteSpace=wrap;rounded=0;" parent="xqqz79Ulj2Jtzs50PCgT-48" vertex="1">
          <mxGeometry x="10" y="100" width="70" height="30" as="geometry" />
        </mxCell>
        <mxCell id="WI1DVCWgMpx3r-e4tX1s-13" value="email" style="text;html=1;strokeColor=none;fillColor=none;align=center;verticalAlign=middle;whiteSpace=wrap;rounded=0;" parent="xqqz79Ulj2Jtzs50PCgT-48" vertex="1">
          <mxGeometry y="140" width="70" height="30" as="geometry" />
        </mxCell>
        <mxCell id="WI1DVCWgMpx3r-e4tX1s-27" value="password" style="text;html=1;strokeColor=none;fillColor=none;align=center;verticalAlign=middle;whiteSpace=wrap;rounded=0;" parent="xqqz79Ulj2Jtzs50PCgT-48" vertex="1">
          <mxGeometry x="10" y="180" width="70" height="30" as="geometry" />
        </mxCell>
        <mxCell id="xqqz79Ulj2Jtzs50PCgT-67" value="teams" style="swimlane;whiteSpace=wrap;html=1;" parent="1" vertex="1">
          <mxGeometry x="600.5" y="1440" width="200" height="200" as="geometry" />
        </mxCell>
        <mxCell id="xqqz79Ulj2Jtzs50PCgT-68" value="&lt;u&gt;ID&lt;/u&gt;" style="text;html=1;strokeColor=none;fillColor=none;align=center;verticalAlign=middle;whiteSpace=wrap;rounded=0;" parent="xqqz79Ulj2Jtzs50PCgT-67" vertex="1">
          <mxGeometry y="19" width="60" height="30" as="geometry" />
        </mxCell>
        <mxCell id="xqqz79Ulj2Jtzs50PCgT-69" value="PK" style="text;html=1;strokeColor=none;fillColor=none;align=center;verticalAlign=middle;whiteSpace=wrap;rounded=0;" parent="xqqz79Ulj2Jtzs50PCgT-67" vertex="1">
          <mxGeometry x="139" y="22" width="60" height="30" as="geometry" />
        </mxCell>
        <mxCell id="xqqz79Ulj2Jtzs50PCgT-70" value="name" style="text;html=1;strokeColor=none;fillColor=none;align=center;verticalAlign=middle;whiteSpace=wrap;rounded=0;" parent="xqqz79Ulj2Jtzs50PCgT-67" vertex="1">
          <mxGeometry x="9" y="60" width="60" height="30" as="geometry" />
        </mxCell>
        <mxCell id="WI1DVCWgMpx3r-e4tX1s-80" value="sport_id" style="text;html=1;strokeColor=none;fillColor=none;align=center;verticalAlign=middle;whiteSpace=wrap;rounded=0;" parent="xqqz79Ulj2Jtzs50PCgT-67" vertex="1">
          <mxGeometry x="13" y="100" width="60" height="30" as="geometry" />
        </mxCell>
        <mxCell id="WI1DVCWgMpx3r-e4tX1s-4" value="user_teams" style="swimlane;whiteSpace=wrap;html=1;" parent="1" vertex="1">
          <mxGeometry x="159" y="1360" width="200" height="240" as="geometry" />
        </mxCell>
        <mxCell id="WI1DVCWgMpx3r-e4tX1s-5" value="&lt;u&gt;ID&lt;/u&gt;" style="text;html=1;strokeColor=none;fillColor=none;align=center;verticalAlign=middle;whiteSpace=wrap;rounded=0;" parent="WI1DVCWgMpx3r-e4tX1s-4" vertex="1">
          <mxGeometry y="19" width="60" height="30" as="geometry" />
        </mxCell>
        <mxCell id="WI1DVCWgMpx3r-e4tX1s-6" value="PK" style="text;html=1;strokeColor=none;fillColor=none;align=center;verticalAlign=middle;whiteSpace=wrap;rounded=0;" parent="WI1DVCWgMpx3r-e4tX1s-4" vertex="1">
          <mxGeometry x="139" y="22" width="60" height="30" as="geometry" />
        </mxCell>
        <mxCell id="WI1DVCWgMpx3r-e4tX1s-7" value="user_id" style="text;html=1;strokeColor=none;fillColor=none;align=center;verticalAlign=middle;whiteSpace=wrap;rounded=0;" parent="WI1DVCWgMpx3r-e4tX1s-4" vertex="1">
          <mxGeometry x="12" y="136" width="60" height="30" as="geometry" />
        </mxCell>
        <mxCell id="WI1DVCWgMpx3r-e4tX1s-9" value="player" style="text;html=1;strokeColor=none;fillColor=none;align=center;verticalAlign=middle;whiteSpace=wrap;rounded=0;" parent="WI1DVCWgMpx3r-e4tX1s-4" vertex="1">
          <mxGeometry x="9" y="60" width="60" height="30" as="geometry" />
        </mxCell>
        <mxCell id="WI1DVCWgMpx3r-e4tX1s-10" value="team_id" style="text;html=1;strokeColor=none;fillColor=none;align=center;verticalAlign=middle;whiteSpace=wrap;rounded=0;" parent="WI1DVCWgMpx3r-e4tX1s-4" vertex="1">
          <mxGeometry x="13" y="177" width="60" height="30" as="geometry" />
        </mxCell>
        <mxCell id="WI1DVCWgMpx3r-e4tX1s-125" value="captain" style="text;html=1;strokeColor=none;fillColor=none;align=center;verticalAlign=middle;whiteSpace=wrap;rounded=0;" parent="WI1DVCWgMpx3r-e4tX1s-4" vertex="1">
          <mxGeometry x="11" y="95" width="60" height="30" as="geometry" />
        </mxCell>
        <mxCell id="WI1DVCWgMpx3r-e4tX1s-34" value="events" style="swimlane;whiteSpace=wrap;html=1;" parent="1" vertex="1">
          <mxGeometry x="1320" y="1080" width="200" height="280" as="geometry" />
        </mxCell>
        <mxCell id="WI1DVCWgMpx3r-e4tX1s-35" value="&lt;u&gt;ID&lt;/u&gt;" style="text;html=1;strokeColor=none;fillColor=none;align=center;verticalAlign=middle;whiteSpace=wrap;rounded=0;" parent="WI1DVCWgMpx3r-e4tX1s-34" vertex="1">
          <mxGeometry y="19" width="60" height="30" as="geometry" />
        </mxCell>
        <mxCell id="WI1DVCWgMpx3r-e4tX1s-36" value="PK" style="text;html=1;strokeColor=none;fillColor=none;align=center;verticalAlign=middle;whiteSpace=wrap;rounded=0;" parent="WI1DVCWgMpx3r-e4tX1s-34" vertex="1">
          <mxGeometry x="139" y="22" width="60" height="30" as="geometry" />
        </mxCell>
        <mxCell id="WI1DVCWgMpx3r-e4tX1s-37" value="date" style="text;html=1;strokeColor=none;fillColor=none;align=center;verticalAlign=middle;whiteSpace=wrap;rounded=0;" parent="WI1DVCWgMpx3r-e4tX1s-34" vertex="1">
          <mxGeometry x="4" y="60" width="60" height="30" as="geometry" />
        </mxCell>
        <mxCell id="WI1DVCWgMpx3r-e4tX1s-84" value="venue" style="text;html=1;strokeColor=none;fillColor=none;align=center;verticalAlign=middle;whiteSpace=wrap;rounded=0;" parent="WI1DVCWgMpx3r-e4tX1s-34" vertex="1">
          <mxGeometry x="8" y="99" width="60" height="30" as="geometry" />
        </mxCell>
        <mxCell id="WI1DVCWgMpx3r-e4tX1s-85" value="description" style="text;html=1;strokeColor=none;fillColor=none;align=center;verticalAlign=middle;whiteSpace=wrap;rounded=0;" parent="WI1DVCWgMpx3r-e4tX1s-34" vertex="1">
          <mxGeometry x="20" y="138" width="60" height="30" as="geometry" />
        </mxCell>
        <mxCell id="WI1DVCWgMpx3r-e4tX1s-126" value="duration" style="text;html=1;strokeColor=none;fillColor=none;align=center;verticalAlign=middle;whiteSpace=wrap;rounded=0;" parent="WI1DVCWgMpx3r-e4tX1s-34" vertex="1">
          <mxGeometry x="14" y="180" width="60" height="30" as="geometry" />
        </mxCell>
        <mxCell id="WI1DVCWgMpx3r-e4tX1s-41" value="user_events" style="swimlane;whiteSpace=wrap;html=1;" parent="1" vertex="1">
          <mxGeometry x="1000" y="920" width="200" height="160" as="geometry" />
        </mxCell>
        <mxCell id="WI1DVCWgMpx3r-e4tX1s-42" value="&lt;u&gt;ID&lt;/u&gt;" style="text;html=1;strokeColor=none;fillColor=none;align=center;verticalAlign=middle;whiteSpace=wrap;rounded=0;" parent="WI1DVCWgMpx3r-e4tX1s-41" vertex="1">
          <mxGeometry y="19" width="60" height="30" as="geometry" />
        </mxCell>
        <mxCell id="WI1DVCWgMpx3r-e4tX1s-43" value="PK" style="text;html=1;strokeColor=none;fillColor=none;align=center;verticalAlign=middle;whiteSpace=wrap;rounded=0;" parent="WI1DVCWgMpx3r-e4tX1s-41" vertex="1">
          <mxGeometry x="139" y="22" width="60" height="30" as="geometry" />
        </mxCell>
        <mxCell id="WI1DVCWgMpx3r-e4tX1s-68" value="user_id" style="text;html=1;strokeColor=none;fillColor=none;align=center;verticalAlign=middle;whiteSpace=wrap;rounded=0;" parent="WI1DVCWgMpx3r-e4tX1s-41" vertex="1">
          <mxGeometry x="10" y="60" width="64" height="29" as="geometry" />
        </mxCell>
        <mxCell id="WI1DVCWgMpx3r-e4tX1s-69" value="event_id" style="text;html=1;strokeColor=none;fillColor=none;align=center;verticalAlign=middle;whiteSpace=wrap;rounded=0;" parent="WI1DVCWgMpx3r-e4tX1s-41" vertex="1">
          <mxGeometry x="12" y="100" width="64" height="29" as="geometry" />
        </mxCell>
        <mxCell id="WI1DVCWgMpx3r-e4tX1s-45" value="team_events" style="swimlane;whiteSpace=wrap;html=1;" parent="1" vertex="1">
          <mxGeometry x="1000" y="1280" width="200" height="160" as="geometry" />
        </mxCell>
        <mxCell id="WI1DVCWgMpx3r-e4tX1s-46" value="&lt;u&gt;ID&lt;/u&gt;" style="text;html=1;strokeColor=none;fillColor=none;align=center;verticalAlign=middle;whiteSpace=wrap;rounded=0;" parent="WI1DVCWgMpx3r-e4tX1s-45" vertex="1">
          <mxGeometry y="19" width="60" height="30" as="geometry" />
        </mxCell>
        <mxCell id="WI1DVCWgMpx3r-e4tX1s-47" value="PK" style="text;html=1;strokeColor=none;fillColor=none;align=center;verticalAlign=middle;whiteSpace=wrap;rounded=0;" parent="WI1DVCWgMpx3r-e4tX1s-45" vertex="1">
          <mxGeometry x="139" y="22" width="60" height="30" as="geometry" />
        </mxCell>
        <mxCell id="WI1DVCWgMpx3r-e4tX1s-75" value="team_id" style="text;html=1;strokeColor=none;fillColor=none;align=center;verticalAlign=middle;whiteSpace=wrap;rounded=0;" parent="WI1DVCWgMpx3r-e4tX1s-45" vertex="1">
          <mxGeometry x="10" y="60" width="64" height="29" as="geometry" />
        </mxCell>
        <mxCell id="WI1DVCWgMpx3r-e4tX1s-76" value="event_id" style="text;html=1;strokeColor=none;fillColor=none;align=center;verticalAlign=middle;whiteSpace=wrap;rounded=0;" parent="WI1DVCWgMpx3r-e4tX1s-45" vertex="1">
          <mxGeometry x="10" y="100" width="64" height="29" as="geometry" />
        </mxCell>
        <mxCell id="WI1DVCWgMpx3r-e4tX1s-50" value="city_sports" style="swimlane;whiteSpace=wrap;html=1;" parent="1" vertex="1">
          <mxGeometry x="1000" y="520" width="199" height="160" as="geometry" />
        </mxCell>
        <mxCell id="WI1DVCWgMpx3r-e4tX1s-51" value="&lt;u&gt;ID&lt;/u&gt;" style="text;html=1;strokeColor=none;fillColor=none;align=center;verticalAlign=middle;whiteSpace=wrap;rounded=0;" parent="WI1DVCWgMpx3r-e4tX1s-50" vertex="1">
          <mxGeometry y="19" width="60" height="30" as="geometry" />
        </mxCell>
        <mxCell id="WI1DVCWgMpx3r-e4tX1s-52" value="PK" style="text;html=1;strokeColor=none;fillColor=none;align=center;verticalAlign=middle;whiteSpace=wrap;rounded=0;" parent="WI1DVCWgMpx3r-e4tX1s-50" vertex="1">
          <mxGeometry x="138" y="21" width="60" height="30" as="geometry" />
        </mxCell>
        <mxCell id="WI1DVCWgMpx3r-e4tX1s-54" value="city_id" style="text;html=1;strokeColor=none;fillColor=none;align=center;verticalAlign=middle;whiteSpace=wrap;rounded=0;" parent="WI1DVCWgMpx3r-e4tX1s-50" vertex="1">
          <mxGeometry x="8" y="60" width="64" height="29" as="geometry" />
        </mxCell>
        <mxCell id="WI1DVCWgMpx3r-e4tX1s-55" value="sport_id" style="text;html=1;strokeColor=none;fillColor=none;align=center;verticalAlign=middle;whiteSpace=wrap;rounded=0;" parent="WI1DVCWgMpx3r-e4tX1s-50" vertex="1">
          <mxGeometry x="10" y="99" width="64" height="29" as="geometry" />
        </mxCell>
        <mxCell id="WI1DVCWgMpx3r-e4tX1s-57" style="edgeStyle=orthogonalEdgeStyle;curved=1;rounded=0;orthogonalLoop=1;jettySize=auto;html=1;exitX=1;exitY=0.5;exitDx=0;exitDy=0;entryX=0;entryY=0.5;entryDx=0;entryDy=0;" parent="1" source="xqqz79Ulj2Jtzs50PCgT-23" target="WI1DVCWgMpx3r-e4tX1s-54" edge="1">
          <mxGeometry relative="1" as="geometry" />
        </mxCell>
        <mxCell id="WI1DVCWgMpx3r-e4tX1s-59" value="user_sports" style="swimlane;whiteSpace=wrap;html=1;" parent="1" vertex="1">
          <mxGeometry x="160" y="840" width="199" height="160" as="geometry" />
        </mxCell>
        <mxCell id="WI1DVCWgMpx3r-e4tX1s-60" value="&lt;u&gt;ID&lt;/u&gt;" style="text;html=1;strokeColor=none;fillColor=none;align=center;verticalAlign=middle;whiteSpace=wrap;rounded=0;" parent="WI1DVCWgMpx3r-e4tX1s-59" vertex="1">
          <mxGeometry y="19" width="60" height="30" as="geometry" />
        </mxCell>
        <mxCell id="WI1DVCWgMpx3r-e4tX1s-61" value="PK" style="text;html=1;strokeColor=none;fillColor=none;align=center;verticalAlign=middle;whiteSpace=wrap;rounded=0;" parent="WI1DVCWgMpx3r-e4tX1s-59" vertex="1">
          <mxGeometry x="138" y="21" width="60" height="30" as="geometry" />
        </mxCell>
        <mxCell id="WI1DVCWgMpx3r-e4tX1s-62" value="user_id" style="text;html=1;strokeColor=none;fillColor=none;align=center;verticalAlign=middle;whiteSpace=wrap;rounded=0;" parent="WI1DVCWgMpx3r-e4tX1s-59" vertex="1">
          <mxGeometry x="8" y="98" width="64" height="29" as="geometry" />
        </mxCell>
        <mxCell id="WI1DVCWgMpx3r-e4tX1s-63" value="sport_id" style="text;html=1;strokeColor=none;fillColor=none;align=center;verticalAlign=middle;whiteSpace=wrap;rounded=0;" parent="WI1DVCWgMpx3r-e4tX1s-59" vertex="1">
          <mxGeometry x="10" y="59" width="64" height="29" as="geometry" />
        </mxCell>
        <mxCell id="WI1DVCWgMpx3r-e4tX1s-87" value="posts" style="swimlane;whiteSpace=wrap;html=1;" parent="1" vertex="1">
          <mxGeometry x="160" y="1081" width="199" height="200" as="geometry" />
        </mxCell>
        <mxCell id="WI1DVCWgMpx3r-e4tX1s-88" value="&lt;u&gt;ID&lt;/u&gt;" style="text;html=1;strokeColor=none;fillColor=none;align=center;verticalAlign=middle;whiteSpace=wrap;rounded=0;" parent="WI1DVCWgMpx3r-e4tX1s-87" vertex="1">
          <mxGeometry y="19" width="60" height="30" as="geometry" />
        </mxCell>
        <mxCell id="WI1DVCWgMpx3r-e4tX1s-89" value="PK" style="text;html=1;strokeColor=none;fillColor=none;align=center;verticalAlign=middle;whiteSpace=wrap;rounded=0;" parent="WI1DVCWgMpx3r-e4tX1s-87" vertex="1">
          <mxGeometry x="138" y="21" width="60" height="30" as="geometry" />
        </mxCell>
        <mxCell id="WI1DVCWgMpx3r-e4tX1s-90" value="description" style="text;html=1;strokeColor=none;fillColor=none;align=center;verticalAlign=middle;whiteSpace=wrap;rounded=0;" parent="WI1DVCWgMpx3r-e4tX1s-87" vertex="1">
          <mxGeometry x="24" y="60" width="60" height="30" as="geometry" />
        </mxCell>
        <mxCell id="WI1DVCWgMpx3r-e4tX1s-91" value="sport_id" style="text;html=1;strokeColor=none;fillColor=none;align=center;verticalAlign=middle;whiteSpace=wrap;rounded=0;" parent="WI1DVCWgMpx3r-e4tX1s-87" vertex="1">
          <mxGeometry x="17" y="97" width="60" height="30" as="geometry" />
        </mxCell>
        <mxCell id="WI1DVCWgMpx3r-e4tX1s-92" value="user_id" style="text;html=1;strokeColor=none;fillColor=none;align=center;verticalAlign=middle;whiteSpace=wrap;rounded=0;" parent="WI1DVCWgMpx3r-e4tX1s-87" vertex="1">
          <mxGeometry x="16" y="140" width="60" height="30" as="geometry" />
        </mxCell>
        <mxCell id="WI1DVCWgMpx3r-e4tX1s-100" style="edgeStyle=orthogonalEdgeStyle;curved=1;rounded=0;orthogonalLoop=1;jettySize=auto;html=1;exitX=1;exitY=0.5;exitDx=0;exitDy=0;entryX=0;entryY=0.5;entryDx=0;entryDy=0;endArrow=ERmany;endFill=0;" parent="1" source="xqqz79Ulj2Jtzs50PCgT-14" target="xqqz79Ulj2Jtzs50PCgT-26" edge="1">
          <mxGeometry relative="1" as="geometry" />
        </mxCell>
        <mxCell id="WI1DVCWgMpx3r-e4tX1s-108" style="edgeStyle=orthogonalEdgeStyle;curved=1;rounded=0;orthogonalLoop=1;jettySize=auto;html=1;exitX=0;exitY=0.5;exitDx=0;exitDy=0;entryX=1;entryY=0.5;entryDx=0;entryDy=0;" parent="1" source="xqqz79Ulj2Jtzs50PCgT-45" target="WI1DVCWgMpx3r-e4tX1s-63" edge="1">
          <mxGeometry relative="1" as="geometry" />
        </mxCell>
        <mxCell id="WI1DVCWgMpx3r-e4tX1s-109" style="edgeStyle=orthogonalEdgeStyle;curved=1;rounded=0;orthogonalLoop=1;jettySize=auto;html=1;exitX=0;exitY=0.5;exitDx=0;exitDy=0;entryX=1;entryY=0.5;entryDx=0;entryDy=0;" parent="1" source="xqqz79Ulj2Jtzs50PCgT-50" target="WI1DVCWgMpx3r-e4tX1s-62" edge="1">
          <mxGeometry relative="1" as="geometry" />
        </mxCell>
        <mxCell id="WI1DVCWgMpx3r-e4tX1s-110" style="edgeStyle=orthogonalEdgeStyle;curved=1;rounded=0;orthogonalLoop=1;jettySize=auto;html=1;exitX=0;exitY=0.5;exitDx=0;exitDy=0;entryX=1;entryY=0.5;entryDx=0;entryDy=0;" parent="1" source="xqqz79Ulj2Jtzs50PCgT-45" target="WI1DVCWgMpx3r-e4tX1s-91" edge="1">
          <mxGeometry relative="1" as="geometry">
            <Array as="points">
              <mxPoint x="440" y="754" />
              <mxPoint x="440" y="1193" />
            </Array>
          </mxGeometry>
        </mxCell>
        <mxCell id="WI1DVCWgMpx3r-e4tX1s-111" style="edgeStyle=orthogonalEdgeStyle;curved=1;rounded=0;orthogonalLoop=1;jettySize=auto;html=1;exitX=0;exitY=0.5;exitDx=0;exitDy=0;entryX=1;entryY=0.5;entryDx=0;entryDy=0;" parent="1" source="xqqz79Ulj2Jtzs50PCgT-50" target="WI1DVCWgMpx3r-e4tX1s-92" edge="1">
          <mxGeometry relative="1" as="geometry" />
        </mxCell>
        <mxCell id="WI1DVCWgMpx3r-e4tX1s-112" style="edgeStyle=orthogonalEdgeStyle;curved=1;rounded=0;orthogonalLoop=1;jettySize=auto;html=1;exitX=0;exitY=0.5;exitDx=0;exitDy=0;entryX=1;entryY=0.5;entryDx=0;entryDy=0;" parent="1" source="xqqz79Ulj2Jtzs50PCgT-50" target="WI1DVCWgMpx3r-e4tX1s-7" edge="1">
          <mxGeometry relative="1" as="geometry" />
        </mxCell>
        <mxCell id="WI1DVCWgMpx3r-e4tX1s-113" style="edgeStyle=orthogonalEdgeStyle;curved=1;rounded=0;orthogonalLoop=1;jettySize=auto;html=1;exitX=0;exitY=0.5;exitDx=0;exitDy=0;entryX=1;entryY=0.5;entryDx=0;entryDy=0;" parent="1" source="xqqz79Ulj2Jtzs50PCgT-68" target="WI1DVCWgMpx3r-e4tX1s-10" edge="1">
          <mxGeometry relative="1" as="geometry" />
        </mxCell>
        <mxCell id="WI1DVCWgMpx3r-e4tX1s-114" style="edgeStyle=orthogonalEdgeStyle;curved=1;rounded=0;orthogonalLoop=1;jettySize=auto;html=1;exitX=1;exitY=0.5;exitDx=0;exitDy=0;entryX=0;entryY=0.5;entryDx=0;entryDy=0;" parent="1" source="xqqz79Ulj2Jtzs50PCgT-69" target="WI1DVCWgMpx3r-e4tX1s-75" edge="1">
          <mxGeometry relative="1" as="geometry" />
        </mxCell>
        <mxCell id="WI1DVCWgMpx3r-e4tX1s-115" style="edgeStyle=orthogonalEdgeStyle;curved=1;rounded=0;orthogonalLoop=1;jettySize=auto;html=1;exitX=0;exitY=0.5;exitDx=0;exitDy=0;entryX=1;entryY=0.5;entryDx=0;entryDy=0;" parent="1" source="WI1DVCWgMpx3r-e4tX1s-35" target="WI1DVCWgMpx3r-e4tX1s-76" edge="1">
          <mxGeometry relative="1" as="geometry">
            <Array as="points">
              <mxPoint x="1230" y="1114" />
              <mxPoint x="1230" y="1394" />
            </Array>
          </mxGeometry>
        </mxCell>
        <mxCell id="WI1DVCWgMpx3r-e4tX1s-116" style="edgeStyle=orthogonalEdgeStyle;curved=1;rounded=0;orthogonalLoop=1;jettySize=auto;html=1;exitX=0;exitY=0.5;exitDx=0;exitDy=0;entryX=1;entryY=0.5;entryDx=0;entryDy=0;" parent="1" source="WI1DVCWgMpx3r-e4tX1s-35" target="WI1DVCWgMpx3r-e4tX1s-69" edge="1">
          <mxGeometry relative="1" as="geometry" />
        </mxCell>
        <mxCell id="WI1DVCWgMpx3r-e4tX1s-117" style="edgeStyle=orthogonalEdgeStyle;curved=1;rounded=0;orthogonalLoop=1;jettySize=auto;html=1;exitX=1;exitY=0.5;exitDx=0;exitDy=0;entryX=0;entryY=0.5;entryDx=0;entryDy=0;" parent="1" source="xqqz79Ulj2Jtzs50PCgT-51" target="WI1DVCWgMpx3r-e4tX1s-68" edge="1">
          <mxGeometry relative="1" as="geometry" />
        </mxCell>
        <mxCell id="WI1DVCWgMpx3r-e4tX1s-118" value="city_id" style="text;html=1;strokeColor=none;fillColor=none;align=center;verticalAlign=middle;whiteSpace=wrap;rounded=0;" parent="1" vertex="1">
          <mxGeometry x="1330" y="1291" width="60" height="30" as="geometry" />
        </mxCell>
        <mxCell id="WI1DVCWgMpx3r-e4tX1s-120" style="edgeStyle=orthogonalEdgeStyle;curved=1;rounded=0;orthogonalLoop=1;jettySize=auto;html=1;exitX=1;exitY=0.5;exitDx=0;exitDy=0;entryX=0;entryY=0.5;entryDx=0;entryDy=0;" parent="1" source="xqqz79Ulj2Jtzs50PCgT-46" target="WI1DVCWgMpx3r-e4tX1s-55" edge="1">
          <mxGeometry relative="1" as="geometry" />
        </mxCell>
        <mxCell id="WI1DVCWgMpx3r-e4tX1s-121" style="edgeStyle=orthogonalEdgeStyle;curved=1;rounded=0;orthogonalLoop=1;jettySize=auto;html=1;exitX=1;exitY=0.5;exitDx=0;exitDy=0;entryX=1;entryY=0.5;entryDx=0;entryDy=0;endArrow=ERmany;endFill=0;" parent="1" source="xqqz79Ulj2Jtzs50PCgT-23" target="WI1DVCWgMpx3r-e4tX1s-118" edge="1">
          <mxGeometry relative="1" as="geometry">
            <Array as="points">
              <mxPoint x="1620" y="397" />
              <mxPoint x="1620" y="1273" />
            </Array>
          </mxGeometry>
        </mxCell>
        <mxCell id="WI1DVCWgMpx3r-e4tX1s-122" style="edgeStyle=orthogonalEdgeStyle;curved=1;rounded=0;orthogonalLoop=1;jettySize=auto;html=1;exitX=1;exitY=0.5;exitDx=0;exitDy=0;entryX=1;entryY=0.5;entryDx=0;entryDy=0;endArrow=ERmany;endFill=0;" parent="1" source="xqqz79Ulj2Jtzs50PCgT-46" target="WI1DVCWgMpx3r-e4tX1s-80" edge="1">
          <mxGeometry relative="1" as="geometry">
            <Array as="points">
              <mxPoint x="890" y="756" />
              <mxPoint x="890" y="1555" />
            </Array>
          </mxGeometry>
        </mxCell>
        <mxCell id="WI1DVCWgMpx3r-e4tX1s-123" style="edgeStyle=orthogonalEdgeStyle;curved=1;rounded=0;orthogonalLoop=1;jettySize=auto;html=1;exitX=1;exitY=0.5;exitDx=0;exitDy=0;entryX=1;entryY=0.5;entryDx=0;entryDy=0;endArrow=ERmany;endFill=0;" parent="1" source="xqqz79Ulj2Jtzs50PCgT-23" target="xqqz79Ulj2Jtzs50PCgT-53" edge="1">
          <mxGeometry relative="1" as="geometry">
            <Array as="points">
              <mxPoint x="930" y="437" />
              <mxPoint x="930" y="1315" />
            </Array>
          </mxGeometry>
        </mxCell>
      </root>
    </mxGraphModel>
  </diagram>
</mxfile>
